#!OML:ASF I:\Actors\actors\Patient Classification 1\Patient 1\Session 1\Subject1.ASF
:FULLY-SPECIFIED
:DEGREES
191
root 0.57513 17.4401 9.13611 8.51873 -3.8799 -9.09327
lowerback -2.4228 4.01231 7.8888
upperback -9.80691 5.74771 1.91811
thorax -8.49395 2.32305 -2.59431
lowerneck -8.54892 -5.24971 -3.13153
upperneck 19.8592 -7.90796 5.48615
head 7.87651 -3.51035 1.57544
rclavicle 2.70347e-014 3.18055e-015
rhumerus -7.62126 7.20168 -92.7125
rradius 62.6391
rwrist 23.8351
rhand -30.9966 -40.4319
rfingers 7.12502
rthumb -4.27988 -70.3687
lclavicle 2.70347e-014 3.18055e-015
lhumerus -42.8292 27.4802 70.1164
lradius 39.5888
lwrist -5.97306
lhand -20.2953 -11.0021
lfingers 7.12502
lthumb 6.05469 18.8914
rfemur -3.58365 24.1876 26.0218
rtibia 2.81175
rfoot -11.4473 -23.2956
rtoes 5.17084
lfemur 6.90753 -43.9102 -13.2646
ltibia -4.36916
lfoot -26.1481 53.9136
ltoes 16.1231
192
root 0.563033 17.4385 9.13756 8.50358 -3.03622 -9.09267
lowerback -2.53204 4.01936 7.73666
upperback -9.84433 5.74328 1.848
thorax -8.47601 2.33167 -2.57858
lowerneck -8.53077 -5.50746 -3.44492
upperneck 19.731 -8.31609 6.0084
head 7.88753 -3.6817 1.75729
rclavicle -1.99282e-014 -3.598e-014
rhumerus -6.07718 7.48172 -92.3922
rradius 60.0702
rwrist 17.5492
rhand -30.1276 -41.742
rfingers 7.12502
rthumb -3.44068 -71.694
lclavicle -1.99282e-014 -3.598e-014
lhumerus -42.3588 26.9653 70.9226
lradius 40.1019
lwrist -6.05195
lhand -20.2028 -11.1206
lfingers 7.12502
lthumb 6.14403 18.7703
rfemur -3.48566 23.9949 26.1356
rtibia 2.74001
rfoot -11.6558 -23.8526
rtoes 5.6068
lfemur 6.25543 -43.572 -12.6509
ltibia -4.26039
lfoot -24.4767 53.1465
ltoes 14.6541
193
root 0.544869 17.4493 9.14852 7.97548 -2.30716 -9.13285
lowerback -2.24913 4.03184 7.54573
upperback -9.70189 5.77623 1.80811
thorax -8.48774 2.36393 -2.53512
lowerneck -8.47248 -5.74946 -3.77127
upperneck 19.4708 -8.71973 6.66934
head 7.85808 -3.84312 1.98828
rclavicle -2.45996e-014 3.97569e-015
rhumerus -5.0827 6.97713 -92.395
rradius 58.1539
rwrist 11.9514
rhand -29.0794 -42.6831
rfingers 7.12502
rthumb -2.42843 -72.649
lclavicle -2.45996e-014 3.97569e-015
lhumerus -41.9829 26.4331 71.6961
lradius 40.7439
lwrist -6.08044
lhand -20.0529 -11.181
lfingers 7.12502
lthumb 6.28879 18.7056
rfemur -2.57956 24.0771 26.6377
rtibia 2.47926
rfoot -11.9368 -24.619
rtoes 6.32195
lfemur 6.77632 -43.6455 -12.8229
ltibia -4.32322
lfoot -23.3867 52.744
ltoes 13.5042
194
root 0.531308 17.4557 9.15934 7.525 -1.71959 -9.23116
lowerback -2.02898 4.11114 7.45637
upperback -9.56797 5.8947 1.77771
thorax -8.45853 2.43242 -2.53487
lowerneck -8.48472 -5.99448 -3.90622
upperneck 19.3312 -9.09934 7.01491
head 7.85987 -4.00399 2.08403
rclavicle -5.1684e-015 1.35174e-014
rhumerus -4.4723 6.13151 -92.5368
rradius 56.7292
rwrist 6.7835
rhand -27.6597 -43.5255
rfingers 7.12502
rthumb -1.05724 -73.5026
lclavicle -5.1684e-015 1.35174e-014
lhumerus -41.8069 25.7959 72.5018
lradius 41.5804
lwrist -5.92349
lhand -20.1052 -11.3215
lfingers 7.12502
lthumb 6.23829 18.5667
rfemur -1.8484 24.053 27.119
rtibia 2.32565
rfoot -12.1885 -25.1627
rtoes 6.80032
lfemur 7.30848 -43.8398 -12.9883
ltibia -4.39173
lfoot -22.6665 52.5022
ltoes 12.7422
195
root 0.520521 17.4549 9.16252 7.39692 -1.09844 -9.32858
lowerback -1.99723 4.22097 7.4241
upperback -9.52895 6.03996 1.70795
thorax -8.41454 2.50754 -2.59637
lowerneck -8.58381 -6.27312 -3.99857
upperneck 19.2569 -9.50754 7.22457
head 7.89386 -4.18392 2.12169
rclavicle 3.762e-014 1.35174e-014
rhumerus -3.8747 5.21039 -92.6947
rradius 55.5513
rwrist 1.50371
rhand -25.9831 -44.6463
rfingers 7.12502
rthumb 0.562103 -74.6253
lclavicle 3.762e-014 1.35174e-014
lhumerus -41.7785 25.1649 73.2484
lradius 42.5373
lwrist -5.75373
lhand -20.1187 -11.4718
lfingers 7.12502
lthumb 6.22522 18.4168
rfemur -1.63764 23.9312 27.391
rtibia 2.31005
rfoot -12.3993 -25.6082
rtoes 7.06115
lfemur 7.0517 -43.5954 -12.5665
ltibia -4.36467
lfoot -21.562 51.8635
ltoes 11.6548
196
root 0.508224 17.4534 9.16366 7.39136 -0.496344 -9.4338
lowerback -1.98213 4.35728 7.43817
upperback -9.54551 6.22176 1.60008
thorax -8.41123 2.59288 -2.72488
lowerneck -8.58554 -6.57207 -4.29225
upperneck 19.0942 -9.95492 7.66809
head 7.90772 -4.38034 2.26703
rclavicle -4.48259e-014 -7.7526e-014
rhumerus -3.29743 4.17452 -92.8491
rradius 54.5498
rwrist -4.06299
rhand -24.0515 -46.3153
rfingers 7.12502
rthumb 2.4276 -76.2812
lclavicle -4.48259e-014 -7.7526e-014
lhumerus -41.886 24.7588 73.7856
lradius 43.4328
lwrist -5.78332
lhand -19.9775 -11.8505
lfingers 7.12502
lthumb 6.36149 18.034
rfemur -1.59071 23.8543 27.6138
rtibia 2.30959
rfoot -12.6237 -26.0099
rtoes 7.56274
lfemur 6.54443 -43.2638 -11.9585
ltibia -4.28394
lfoot -20.4747 51.169
ltoes 10.4622
197
root 0.498211 17.4531 9.16833 7.37651 0.000662532 -9.47006
lowerback -1.97255 4.4677 7.3914
upperback -9.51486 6.36329 1.50427
thorax -8.36146 2.66609 -2.80378
lowerneck -8.7669 -6.83164 -4.70109
upperneck 19.0769 -10.3623 8.23047
head 8.0161 -4.546 2.46683
rclavicle 4.68138e-014 3.57812e-014
rhumerus -2.72189 3.2498 -93.0025
rradius 53.6636
rwrist -9.76363
rhand -22.1344 -47.9736
rfingers 7.12502
rthumb 4.27895 -77.9104
lclavicle 4.68138e-014 3.57812e-014
lhumerus -42.0987 24.4604 74.2039
lradius 44.3394
lwrist -5.72325
lhand -19.8778 -12.3498
lfingers 7.12502
lthumb 6.45775 17.5317
rfemur -1.52312 23.6415 27.7307
rtibia 2.27451
rfoot -12.7926 -26.1954
rtoes 8.03259
lfemur 6.25241 -43.2118 -11.6444
ltibia -4.22167
lfoot -19.6908 50.8079
ltoes 9.53708
198
root 0.483964 17.4525 9.17626 7.38715 0.377024 -9.43099
lowerback -2.0446 4.56414 7.1161
upperback -9.42161 6.47008 1.4608
thorax -8.22355 2.74674 -2.69262
lowerneck -9.03492 -7.04364 -4.93899
upperneck 18.9065 -10.6518 8.4982
head 8.0581 -4.67139 2.55163
rclavicle -2.65378e-014 -6.75868e-014
rhumerus -2.30953 2.24494 -93.275
rradius 53.1557
rwrist -15.168
rhand -20.0014 -49.3247
rfingers 7.12502
rthumb 6.33847 -79.2098
lclavicle -2.65378e-014 -6.75868e-014
lhumerus -42.3373 24.0923 74.654
lradius 45.3022
lwrist -5.37397
lhand -20.0023 -12.6219
lfingers 7.12502
lthumb 6.33758 17.2633
rfemur -1.45558 23.5569 27.7761
rtibia 2.22578
rfoot -12.9552 -26.4374
rtoes 8.38867
lfemur 6.07936 -43.1945 -11.4734
ltibia -4.24524
lfoot -19.0745 50.5617
ltoes 8.84766
199
root 0.468995 17.4521 9.18314 7.39783 0.717597 -9.43718
lowerback -2.09879 4.67475 6.89262
upperback -9.32407 6.5996 1.42092
thorax -8.08658 2.8344 -2.60732
lowerneck -9.30238 -7.24949 -5.11484
upperneck 18.8002 -10.9541 8.7946
head 8.12232 -4.79354 2.63343
rclavicle -2.09718e-014 7.15625e-015
rhumerus -2.18107 1.13611 -93.6496
rradius 53.0333
rwrist -20.1786
rhand -18.9291 -48.7296
rfingers 7.12502
rthumb 7.37358 -78.5811
lclavicle -2.09718e-014 7.15625e-015
lhumerus -42.6048 23.7164 75.0327
lradius 46.1784
lwrist -4.93638
lhand -20.1703 -12.763
lfingers 7.12502
lthumb 6.17539 17.127
rfemur -1.40325 23.6735 27.8958
rtibia 2.23137
rfoot -13.1948 -26.8199
rtoes 9.02327
lfemur 5.85251 -43.0589 -11.2032
ltibia -4.23416
lfoot -18.6152 50.2086
ltoes 8.21261
200
root 0.465848 17.4542 9.1839 7.27413 1.07025 -9.48995
lowerback -1.9081 4.77745 6.96772
upperback -9.21868 6.74717 1.34141
thorax -8.04997 2.90188 -2.74738
lowerneck -9.40102 -7.43284 -5.31479
upperneck 18.5519 -11.2124 9.09845
head 8.10838 -4.9051 2.73234
rclavicle 2.28602e-015 1.11319e-014
rhumerus -2.09741 0.245816 -93.9774
rradius 52.8605
rwrist -24.6183
rhand -17.6864 -48.2316
rfingers 7.12502
rthumb 8.57299 -78.0375
lclavicle 2.28602e-015 1.11319e-014
lhumerus -42.9713 23.3633 75.2821
lradius 46.9971
lwrist -4.46626
lhand -20.2209 -12.9423
lfingers 7.12502
lthumb 6.12657 16.9491
rfemur -1.32602 23.4125 28.0221
rtibia 2.33493
rfoot -13.3195 -26.8497
rtoes 9.35067
lfemur 5.68709 -42.8746 -11.0127
ltibia -4.1055
lfoot -18.2109 49.7681
ltoes 7.60469
201
root 0.46459 17.4579 9.18616 7.09134 1.31532 -9.54587
lowerback -1.6585 4.90154 7.04398
upperback -9.08752 6.92889 1.28583
thorax -8.01807 2.9872 -2.86859
lowerneck -9.35621 -7.63624 -5.8101
upperneck 18.0838 -11.4876 9.67616
head 8.03322 -5.03141 2.97186
rclavicle -5.96354e-014 -1.70955e-014
rhumerus -1.95056 -0.423322 -94.2178
rradius 52.5085
rwrist -28.0439
rhand -15.4801 -48.0372
rfingers 7.12502
rthumb 10.7017 -77.7446
lclavicle -5.96354e-014 -1.70955e-014
lhumerus -43.4186 23.1295 75.4543
lradius 47.7452
lwrist -4.04483
lhand -20.3139 -13.0489
lfingers 7.12502
lthumb 6.03678 16.8451
rfemur -1.18918 23.0387 28.152
rtibia 2.43216
rfoot -13.3046 -26.7025
rtoes 9.09145
lfemur 5.75524 -42.8193 -10.9954
ltibia -4.04427
lfoot -18.0117 49.5185
ltoes 7.32256
202
root 0.458968 17.461 9.19193 6.99425 1.45609 -9.61276
lowerback -1.51357 5.06999 7.05872
upperback -8.98027 7.15868 1.21869
thorax -7.95117 3.10194 -2.96123
lowerneck -9.18291 -7.83568 -6.30505
upperneck 17.4646 -11.766 10.3609
head 7.89592 -5.1592 3.25037
rclavicle -3.27001e-014 -2.90226e-014
rhumerus -1.80764 -1.14342 -94.4372
rradius 52.0178
rwrist -29.9146
rhand -13.3572 -47.3742
rfingers 7.12502
rthumb 12.7488 -76.965
lclavicle -3.27001e-014 -2.90226e-014
lhumerus -43.8922 22.9289 75.5004
lradius 48.3336
lwrist -3.75387
lhand -20.4792 -13.1249
lfingers 7.12502
lthumb 5.87716 16.7736
rfemur -1.09389 22.8761 28.2969
rtibia 2.48598
rfoot -13.3133 -26.6644
rtoes 8.84333
lfemur 5.9007 -42.9435 -10.9841
ltibia -4.09489
lfoot -18.0893 49.5285
ltoes 7.42831
203
root 0.452742 17.4614 9.19512 7.00906 1.6136 -9.66617
lowerback -1.41399 5.22403 7.08071
upperback -8.92321 7.36568 1.11085
thorax -7.9089 3.20154 -3.09779
lowerneck -9.17984 -7.99373 -6.24482
upperneck 17.1013 -12.0061 10.6069
head 7.81096 -5.25824 3.29322
rclavicle -1.42131e-014 -4.85035e-014
rhumerus -1.65845 -1.78639 -94.6489
rradius 51.4324
rwrist -30.7158
rhand -10.5862 -46.8361
rfingers 7.12502
rthumb 15.4191 -76.2411
lclavicle -1.42131e-014 -4.85035e-014
lhumerus -44.3914 22.5702 75.4304
lradius 48.8215
lwrist -3.40831
lhand -20.4882 -13.1829
lfingers 7.12502
lthumb 5.86848 16.7158
rfemur -1.14295 22.7328 28.3721
rtibia 2.54323
rfoot -13.3137 -26.6625
rtoes 8.65014
lfemur 5.81348 -43.0246 -10.8299
ltibia -4.08831
lfoot -18.1037 49.4894
ltoes 7.46555
204
root 0.445582 17.4623 9.19542 7.0254 1.7835 -9.71952
lowerback -1.25814 5.3299 7.07673
upperback -8.86012 7.51493 1.04009
thorax -7.90546 3.27409 -3.18604
lowerneck -9.24257 -8.15437 -6.35327
upperneck 16.7463 -12.2093 10.8008
head 7.74484 -5.35324 3.34743
rclavicle -1.03169e-013 -2.74323e-014
rhumerus -1.49128 -1.99407 -94.8049
rradius 50.9742
rwrist -31.6792
rhand -8.43554 -46.5017
rfingers 7.12502
rthumb 17.4897 -75.7349
lclavicle -1.03169e-013 -2.74323e-014
lhumerus -44.8795 22.2266 75.3187
lradius 49.2094
lwrist -3.09111
lhand -20.2992 -13.0669
lfingers 7.12502
lthumb 6.05097 16.8267
rfemur -1.19883 22.6253 28.4489
rtibia 2.59247
rfoot -13.3136 -26.7053
rtoes 8.59441
lfemur 5.5611 -42.8759 -10.5604
ltibia -3.98073
lfoot -17.8756 49.2167
ltoes 7.09919
